<svg width="90" height="90" viewBox="0 0 90 90" fill="none" xmlns="http://www.w3.org/2000/svg">
<path d="M60.902 7.50024H29.102C18.752 7.50024 15.002 11.2502 15.002 21.7877V68.2128C15.002 78.7503 18.752 82.5003 29.102 82.5003H60.8644C71.2519 82.5003 75.0019 78.7503 75.0019 68.2128V21.7877C75.0019 11.2502 71.2519 7.50024 60.902 7.50024ZM45.002 72.3753C41.402 72.3753 38.4395 69.4128 38.4395 65.8127C38.4395 62.2127 41.402 59.2503 45.002 59.2503C48.602 59.2503 51.5644 62.2127 51.5644 65.8127C51.5644 69.4128 48.602 72.3753 45.002 72.3753ZM52.5019 23.4377H37.502C35.9645 23.4377 34.6895 22.1627 34.6895 20.6252C34.6895 19.0877 35.9645 17.8127 37.502 17.8127H52.5019C54.0395 17.8127 55.3144 19.0877 55.3144 20.6252C55.3144 22.1627 54.0395 23.4377 52.5019 23.4377Z" fill="#EF7D00"/>
</svg>
