<svg version="1.1" id="Layer_1" xmlns="http://www.w3.org/2000/svg" xmlns:xlink="http://www.w3.org/1999/xlink" x="0px" y="0px"
	 width="100%" viewBox="0 0 409 371" enable-background="new 0 0 409 371" xml:space="preserve">
<path fill="#FDF1E3" opacity="1.000000" stroke="none" 
	d="
M0.999998,200.000000 
	C1.000000,198.933212 1.000000,197.866425 1.354020,196.798141 
	C2.126541,195.858353 2.889076,194.925995 2.905331,193.980774 
	C2.985291,189.331253 2.867158,184.678329 2.895203,179.561768 
	C4.229891,162.514908 0.060133,145.596176 6.371541,129.156235 
	C13.104107,120.786697 21.487881,117.036041 32.381180,117.954163 
	C72.898087,117.949463 112.941750,117.909508 153.453476,117.918617 
	C185.276367,117.937309 216.631195,117.906937 248.454285,117.922882 
	C267.945892,117.940948 286.969269,117.912689 306.460449,117.927414 
	C321.316467,117.940094 335.704681,117.909805 350.537659,117.924103 
	C355.661163,118.692329 360.339844,119.415970 365.246399,120.380821 
	C368.978485,123.772247 372.482727,126.922455 375.993591,130.038864 
	C376.000153,130.005066 375.933136,129.989090 375.966400,130.211609 
	C375.999664,130.434143 376.117584,130.868423 376.203583,131.234955 
	C377.198853,136.590607 378.783386,141.565155 378.891571,146.571594 
	C379.224731,161.990143 378.962982,177.420990 379.024597,192.846695 
	C379.031464,194.566864 379.630280,196.284668 379.900085,198.437866 
	C379.563721,208.268539 379.262634,217.664383 379.011688,227.061584 
	C378.936096,229.892853 378.626831,232.787399 379.067963,235.550262 
	C380.561005,244.901703 368.919861,255.942734 359.649994,255.182938 
	C349.243042,254.329941 338.828308,255.054916 328.757294,258.913483 
	C309.902435,266.137482 298.881744,282.821167 297.029694,300.669739 
	C296.184784,308.812225 295.901062,317.016296 294.942841,325.142883 
	C293.697479,335.704620 286.381805,341.998413 275.936523,341.998688 
	C192.604858,342.000916 109.272987,341.910950 25.941778,342.105927 
	C14.811598,342.131958 2.776649,330.198303 2.891085,319.069519 
	C3.206390,288.406738 3.013616,257.738556 2.991274,227.072495 
	C2.984964,218.411545 2.873539,209.750656 2.857343,200.874359 
	C2.946131,200.348068 2.866293,200.072372 2.213150,199.522522 
	C1.507634,199.475418 1.253815,199.737701 0.999998,200.000000 
z"/>
<path fill="#000000" opacity="1.000000" stroke="none" 
	d="
M0.999998,200.468658 
	C1.253815,199.737701 1.507634,199.475418 1.981163,199.707520 
	C2.404025,200.497833 2.607176,200.793793 2.810326,201.089737 
	C2.873539,209.750656 2.984964,218.411545 2.991274,227.072495 
	C3.013616,257.738556 3.206390,288.406738 2.891085,319.069519 
	C2.776649,330.198303 14.811598,342.131958 25.941778,342.105927 
	C109.272987,341.910950 192.604858,342.000916 275.936523,341.998688 
	C286.381805,341.998413 293.697479,335.704620 294.942841,325.142883 
	C295.901062,317.016296 296.184784,308.812225 297.029694,300.669739 
	C298.881744,282.821167 309.902435,266.137482 328.757294,258.913483 
	C338.828308,255.054916 349.243042,254.329941 359.649994,255.182938 
	C368.919861,255.942734 380.561005,244.901703 379.067963,235.550262 
	C378.626831,232.787399 378.936096,229.892853 379.011688,227.061584 
	C379.262634,217.664383 379.563721,208.268539 380.302673,198.258087 
	C380.792938,169.755753 380.826080,141.867493 380.929199,113.516426 
	C380.944641,90.699120 380.890076,68.344620 380.896454,45.525585 
	C380.972534,39.278698 381.096283,33.494148 380.979218,27.714478 
	C380.763184,17.049097 376.141693,9.010240 366.581238,3.919356 
	C365.507202,3.347436 364.850311,1.992062 364.000000,0.999999 
	C379.326599,1.000000 394.653229,1.000000 409.984863,0.999999 
	C409.989929,124.605690 409.989929,248.211380 409.989929,371.908539 
	C273.787506,371.908539 137.574936,371.908539 1.000000,371.908539 
	C1.000000,314.979614 1.000000,257.958466 0.999998,200.468658 
M371.494141,276.996735 
	C362.917877,269.018829 353.040192,265.457306 341.156738,266.880219 
	C315.010651,270.010864 301.398499,296.842834 310.488403,320.809296 
	C317.563599,339.463928 336.827942,347.931244 353.401947,344.294342 
	C368.895630,340.894501 378.405579,330.899445 382.408997,315.932770 
	C386.314972,301.330414 382.447876,288.422668 371.494141,276.996735 
z"/>
<path fill="#DFDEDE" opacity="1.000000" stroke="none" 
	d="
M202.000000,1.000000 
	C239.354233,1.000000 276.708466,1.000000 314.534729,1.396394 
	C315.007050,2.849877 315.007263,3.906965 314.540894,5.021839 
	C307.087738,5.102973 300.101166,5.126320 292.637268,5.083545 
	C284.076324,5.047999 275.992706,5.078576 267.512390,5.103244 
	C266.069061,5.213602 265.022400,5.329868 263.552612,5.337322 
	C256.757965,5.439259 250.386459,5.650007 243.584686,5.819886 
	C234.097015,5.647299 225.039627,5.515582 215.558517,5.264405 
	C213.089508,5.092325 211.044220,5.039705 208.858124,4.760253 
	C208.145737,4.678789 207.574158,4.824158 206.588379,4.984584 
	C204.796097,4.969630 203.417984,4.939618 202.040451,4.518598 
	C202.027344,3.085059 202.013672,2.042530 202.000000,1.000000 
z"/>
<path fill="#EAEAEA" opacity="1.000000" stroke="none" 
	d="
M315.007477,4.964052 
	C315.007263,3.906965 315.007050,2.849877 315.003418,1.396394 
	C331.020905,1.000000 347.041779,1.000000 363.531342,0.999999 
	C364.850311,1.992062 365.507202,3.347436 366.581238,3.919356 
	C376.141693,9.010240 380.763184,17.049097 380.979218,27.714478 
	C381.096283,33.494148 380.972534,39.278698 380.521423,45.528717 
	C379.085266,45.989536 378.085114,45.982677 376.832520,45.691723 
	C376.693634,40.814415 376.909637,36.221039 376.902191,31.628025 
	C376.877106,16.206114 370.214325,9.678201 358.859680,5.815552 
	C358.144897,5.682249 357.565063,5.771606 356.526306,5.856884 
	C343.700195,5.707823 331.333069,5.562840 318.579315,5.318724 
	C317.130981,5.134412 316.069214,5.049232 315.007477,4.964052 
z"/>
<path fill="#BCBCBC" opacity="1.000000" stroke="none" 
	d="
M84.000000,1.000000 
	C108.020897,1.000000 132.041794,1.000000 156.527603,1.403888 
	C156.992538,2.884863 156.992538,3.961949 156.526184,5.076519 
	C149.746979,5.149455 143.434128,5.184908 136.649826,5.140655 
	C132.083847,5.105238 127.989326,5.149528 123.443726,5.167541 
	C119.646698,5.252453 116.300751,5.363642 112.501846,5.367656 
	C103.001984,5.161765 93.955093,5.063047 84.666313,4.712903 
	C84.282951,3.307650 84.141479,2.153825 84.000000,1.000000 
z"/>
<path fill="#B3B2B2" opacity="1.000000" stroke="none" 
	d="
M83.531342,1.000000 
	C84.141479,2.153825 84.282951,3.307650 84.687073,4.943548 
	C84.949722,5.425621 84.962822,5.887713 84.545990,5.871910 
	C76.088654,5.876114 68.048141,5.896121 59.590111,5.871041 
	C50.762131,5.822399 42.351673,5.818843 33.575333,5.797787 
	C32.483772,5.688152 31.758101,5.596019 31.035160,5.128762 
	C31.025261,3.502425 31.012630,2.251213 31.000000,1.000000 
	C48.354229,1.000000 65.708458,1.000000 83.531342,1.000000 
z"/>
<path fill="#989898" opacity="1.000000" stroke="none" 
	d="
M1.000000,66.000000 
	C1.000000,51.979103 1.000000,37.958210 1.388012,23.438988 
	C2.813011,22.951420 3.849999,22.962179 4.929003,23.322332 
	C5.041919,24.134541 5.112819,24.597355 5.166689,25.454025 
	C5.397237,27.575377 5.644816,29.302874 5.879649,31.487511 
	C5.878799,37.624584 5.890697,43.304520 5.760659,49.349419 
	C5.389870,55.140053 5.161015,60.565716 4.538941,65.989990 
	C3.097148,65.992393 2.048574,65.996201 1.000000,66.000000 
z"/>
<path fill="#C5C4C4" opacity="1.000000" stroke="none" 
	d="
M156.992554,5.039035 
	C156.992538,3.961949 156.992538,2.884863 156.996262,1.403888 
	C171.687561,1.000000 186.375122,1.000000 201.531342,1.000000 
	C202.013672,2.042530 202.027344,3.085059 201.574463,4.596103 
	C196.395309,5.201563 191.682739,5.338510 186.542358,5.354230 
	C177.394135,5.313986 168.673676,5.394969 159.592072,5.375347 
	C158.484787,5.196172 157.738678,5.117603 156.992554,5.039035 
z"/>
<path fill="#6F6E6E" opacity="1.000000" stroke="none" 
	d="
M6.059708,129.308228 
	C0.060133,145.596176 4.229891,162.514908 2.592034,179.558075 
	C1.808417,180.012817 1.404208,180.006409 1.000000,180.000000 
	C1.000000,163.645767 1.000000,147.291550 1.410318,130.427582 
	C2.544317,128.544571 3.855768,127.187508 3.894119,125.795380 
	C4.106822,118.074234 3.923183,110.342667 4.091125,102.619362 
	C4.125460,101.040405 5.081202,99.481483 5.726013,98.377968 
	C5.913114,108.997810 5.986411,119.153023 6.059708,129.308228 
z"/>
<path fill="#A2A2A2" opacity="1.000000" stroke="none" 
	d="
M4.886988,22.972937 
	C3.849999,22.962179 2.813011,22.951420 1.388012,22.970331 
	C1.000000,21.933331 1.000000,20.866661 1.292531,19.714161 
	C2.183239,18.877291 3.091950,18.213329 3.330810,17.361528 
	C5.370651,10.087228 10.982717,6.346223 17.116501,3.035468 
	C17.886286,2.619971 18.378941,1.691040 19.000000,1.000000 
	C22.692909,1.000000 26.385818,1.000000 30.539364,1.000000 
	C31.012630,2.251213 31.025261,3.502425 30.592274,5.258647 
	C25.510691,6.552305 20.874723,7.340953 15.898854,8.122921 
	C15.036218,8.726590 14.513483,9.336940 13.759903,10.150875 
	C12.975086,11.219561 12.421117,12.084662 11.583380,13.106991 
	C10.148099,15.102320 8.996585,16.940422 7.525571,18.884640 
	C6.433043,20.318148 5.660016,21.645542 4.886988,22.972937 
z"/>
<path fill="#000000" opacity="1.000000" stroke="none" 
	d="
M18.530293,1.000000 
	C18.378941,1.691040 17.886286,2.619971 17.116501,3.035468 
	C10.982717,6.346223 5.370651,10.087228 3.330810,17.361528 
	C3.091950,18.213329 2.183239,18.877291 1.292531,19.314165 
	C1.000000,13.074268 1.000000,7.148537 1.000000,1.000000 
	C6.684937,1.000000 12.372760,1.000000 18.530293,1.000000 
z"/>
<path fill="#8F8F8F" opacity="1.000000" stroke="none" 
	d="
M1.000000,66.468658 
	C2.048574,65.996201 3.097148,65.992393 4.680746,66.246887 
	C5.306373,66.678299 5.396976,66.851433 5.362347,67.456299 
	C5.451819,72.587677 5.666524,77.287338 5.847753,82.447350 
	C5.707331,86.598145 5.600384,90.288574 5.119241,93.975266 
	C3.496696,93.981010 2.248348,93.990501 1.000000,94.000000 
	C1.000000,84.979103 1.000000,75.958214 1.000000,66.468658 
z"/>
<path fill="#848484" opacity="1.000000" stroke="none" 
	d="
M1.000000,94.468658 
	C2.248348,93.990501 3.496696,93.981010 5.225007,94.358429 
	C5.674049,95.801338 5.643129,96.857330 5.612209,97.913330 
	C5.081202,99.481483 4.125460,101.040405 4.091125,102.619362 
	C3.923183,110.342667 4.106822,118.074234 3.894119,125.795380 
	C3.855768,127.187508 2.544317,128.544571 1.410318,129.958923 
	C1.000000,118.312439 1.000000,106.624878 1.000000,94.468658 
z"/>
<path fill="#5C5C5C" opacity="1.000000" stroke="none" 
	d="
M1.000000,180.466858 
	C1.404208,180.006409 1.808417,180.012817 2.515795,180.022903 
	C2.867158,184.678329 2.985291,189.331253 2.905331,193.980774 
	C2.889076,194.925995 2.126541,195.858353 1.354020,196.398315 
	C1.000000,190.977905 1.000000,185.955811 1.000000,180.466858 
z"/>
<path fill="#8F8F8F" opacity="1.000000" stroke="none" 
	d="
M215.982239,5.383866 
	C225.039627,5.515582 234.097015,5.647299 243.585968,6.198821 
	C246.427658,8.687524 248.741562,10.882708 251.263763,12.804529 
	C265.873322,23.936495 280.500732,35.045662 295.185211,46.078552 
	C304.779968,53.287369 314.525421,60.295612 324.121368,67.502853 
	C331.614594,73.130814 338.930389,78.994850 346.418243,84.630142 
	C355.004028,91.091728 363.669891,97.448082 372.368134,103.757576 
	C373.359375,104.476585 374.782745,104.599785 376.029358,105.467484 
	C376.030975,113.981369 376.008972,122.027016 375.987000,130.072662 
	C372.482727,126.922455 368.978485,123.772247 365.206543,120.021667 
	C363.709900,117.891045 362.716187,116.060135 361.211182,114.882683 
	C354.769073,109.842712 348.241791,104.905052 341.621338,100.101288 
	C333.860748,94.470230 325.860901,89.165108 318.170563,83.442154 
	C311.267700,78.305260 304.802734,72.575378 297.850891,67.510216 
	C291.207428,62.669739 284.017761,58.578907 277.374542,53.738132 
	C270.037933,48.392120 263.167023,42.410515 255.883499,36.987476 
	C243.565536,27.815962 231.047409,18.913383 218.721405,9.752468 
	C217.436066,8.797172 216.877823,6.863560 215.982239,5.383866 
z"/>
<path fill="#8A8989" opacity="1.000000" stroke="none" 
	d="
M215.558517,5.264406 
	C216.877823,6.863560 217.436066,8.797172 218.721405,9.752468 
	C231.047409,18.913383 243.565536,27.815962 255.883499,36.987476 
	C263.167023,42.410515 270.037933,48.392120 277.374542,53.738132 
	C284.017761,58.578907 291.207428,62.669739 297.850891,67.510216 
	C304.802734,72.575378 311.267700,78.305260 318.170563,83.442154 
	C325.860901,89.165108 333.860748,94.470230 341.621338,100.101288 
	C348.241791,104.905052 354.769073,109.842712 361.211182,114.882683 
	C362.716187,116.060135 363.709900,117.891045 364.978699,119.780457 
	C360.339844,119.415970 355.661163,118.692329 350.454620,117.581192 
	C346.102295,106.904877 338.635101,101.080048 327.810791,100.095695 
	C321.579102,99.528992 315.260101,99.922340 308.940338,99.547638 
	C305.566162,96.604744 302.255981,93.966507 298.893463,91.396736 
	C289.174988,83.969589 279.464752,76.531128 269.695404,69.171272 
	C261.114563,62.706787 252.489746,56.299511 243.827057,49.945084 
	C233.618790,42.456886 223.310562,35.104740 213.117844,27.595652 
	C205.047897,21.650440 197.040436,15.617060 189.131317,9.460840 
	C188.038803,8.610463 187.672592,6.826964 186.970154,5.475458 
	C191.682739,5.338510 196.395309,5.201563 201.573883,4.987111 
	C203.417984,4.939618 204.796097,4.969630 206.726410,5.211867 
	C207.852066,5.278424 208.425507,5.132754 208.998932,4.987084 
	C211.044220,5.039705 213.089508,5.092325 215.558517,5.264406 
z"/>
<path fill="#B3B2B2" opacity="1.000000" stroke="none" 
	d="
M152.985413,117.869545 
	C112.941750,117.909508 72.898087,117.949463 32.476254,117.610405 
	C34.779846,113.232666 37.461609,109.233940 40.456158,105.078812 
	C44.510735,103.254593 48.252533,101.586754 52.460979,99.964844 
	C58.947685,99.953232 64.967735,99.895699 71.453217,99.902573 
	C81.606445,99.923500 91.294235,99.880020 101.447998,99.899368 
	C111.602974,99.920013 121.291977,99.877846 131.357239,99.895554 
	C132.491684,100.024574 133.249878,100.093712 134.054321,100.497086 
	C138.216965,104.466782 142.353348,108.079926 146.441742,111.746582 
	C148.665085,113.740608 150.806854,115.825584 152.985413,117.869545 
z"/>
<path fill="#B6B6B6" opacity="1.000000" stroke="none" 
	d="
M153.453476,117.918610 
	C150.806854,115.825584 148.665085,113.740608 146.441742,111.746582 
	C142.353348,108.079926 138.216965,104.466782 134.519562,100.441299 
	C141.953323,99.985687 148.968079,99.920090 156.449310,99.912643 
	C165.271103,99.930817 173.626404,99.890839 182.449127,99.908424 
	C190.938187,99.928635 198.959839,99.891289 207.448578,99.906662 
	C215.612930,100.015999 223.310211,100.072609 231.051147,100.464355 
	C234.247604,103.846901 236.913818,108.058884 240.682053,109.633324 
	C244.948746,111.416039 247.269821,113.581642 247.986023,117.876556 
	C216.631195,117.906937 185.276367,117.937309 153.453476,117.918610 
z"/>
<path fill="#BAB9B9" opacity="1.000000" stroke="none" 
	d="
M248.454285,117.922882 
	C247.269821,113.581642 244.948746,111.416039 240.682053,109.633324 
	C236.913818,108.058884 234.247604,103.846901 231.446716,100.416550 
	C232.858795,99.977432 233.918976,99.921265 235.447510,99.918571 
	C242.939102,99.937935 249.962326,99.903809 257.453064,99.915695 
	C266.274384,99.930840 274.628265,99.899979 283.399292,99.916969 
	C285.213074,100.016098 286.609741,100.067368 288.050049,100.455368 
	C290.991699,103.338028 293.981506,105.788116 296.763336,108.455162 
	C299.936462,111.497375 302.924286,114.732903 305.992615,117.884430 
	C286.969269,117.912689 267.945892,117.940948 248.454285,117.922882 
z"/>
<path fill="#444343" opacity="1.000000" stroke="none" 
	d="
M40.143372,105.235207 
	C37.461609,109.233940 34.779846,113.232666 32.003006,117.575150 
	C21.487881,117.036041 13.104107,120.786697 6.371541,129.156235 
	C5.986411,119.153023 5.913114,108.997810 5.726012,98.377968 
	C5.643129,96.857330 5.674049,95.801338 5.599203,94.362175 
	C5.600384,90.288574 5.707331,86.598145 6.220083,82.414932 
	C8.299751,82.009544 10.483723,81.442215 11.567667,82.286743 
	C21.203487,89.794296 30.644739,97.551575 40.143372,105.235207 
z"/>
<path fill="#BCBCBC" opacity="1.000000" stroke="none" 
	d="
M306.460449,117.927399 
	C302.924286,114.732903 299.936462,111.497375 296.763336,108.455162 
	C293.981506,105.788116 290.991699,103.338028 288.516632,100.414139 
	C295.619812,99.985298 302.300110,99.934425 308.980408,99.883553 
	C315.260101,99.922340 321.579102,99.528992 327.810791,100.095695 
	C338.635101,101.080048 346.102295,106.904877 350.009827,117.536606 
	C335.704681,117.909805 321.316467,117.940094 306.460449,117.927399 
z"/>
<path fill="#C5C4C4" opacity="1.000000" stroke="none" 
	d="
M375.993561,130.038864 
	C376.008972,122.027016 376.030975,113.981369 376.054016,105.004883 
	C376.033356,100.049500 376.011719,96.024956 376.014404,91.550934 
	C376.016418,88.401550 375.994141,85.701637 375.996948,82.535950 
	C375.999451,77.382301 375.976837,72.694450 375.979126,67.540382 
	C376.097534,62.344711 376.191071,57.615250 376.644745,53.042953 
	C377.322845,54.917980 377.908264,56.634422 377.917389,58.353931 
	C378.008026,75.389801 377.988617,92.426224 378.045135,109.462341 
	C378.051758,111.466240 377.300537,114.113647 380.859222,113.979233 
	C380.826080,141.867493 380.792938,169.755753 380.357208,197.823792 
	C379.630280,196.284668 379.031464,194.566864 379.024597,192.846695 
	C378.962982,177.420990 379.224731,161.990143 378.891571,146.571594 
	C378.783386,141.565155 377.198853,136.590607 376.340607,131.140900 
	C376.238800,130.449905 376.085968,130.219498 375.933136,129.989090 
	C375.933136,129.989090 376.000153,130.005066 375.993561,130.038864 
z"/>
<path fill="#969696" opacity="1.000000" stroke="none" 
	d="
M375.966400,130.211609 
	C376.085968,130.219498 376.238800,130.449905 376.254608,130.774368 
	C376.117584,130.868423 375.999664,130.434143 375.966400,130.211609 
z"/>
<path fill="#5C5C5C" opacity="1.000000" stroke="none" 
	d="
M2.857344,200.874359 
	C2.607176,200.793793 2.404025,200.497833 2.432860,200.016891 
	C2.866293,200.072372 2.946131,200.348068 2.857344,200.874359 
z"/>
<path fill="#302210" opacity="1.000000" stroke="none" 
	d="
M371.746521,277.249115 
	C382.447876,288.422668 386.314972,301.330414 382.408997,315.932770 
	C378.405579,330.899445 368.895630,340.894501 353.401947,344.294342 
	C336.827942,347.931244 317.563599,339.463928 310.488403,320.809296 
	C301.398499,296.842834 315.010651,270.010864 341.156738,266.880219 
	C353.040192,265.457306 362.917877,269.018829 371.746521,277.249115 
M357.961945,295.407349 
	C351.813202,294.552429 345.674377,293.600006 339.502594,292.971527 
	C338.768402,292.896759 337.033936,294.813171 337.197906,295.416626 
	C337.517548,296.592529 338.693420,298.086273 339.801361,298.384979 
	C342.259918,299.047791 344.895508,299.053925 348.372925,299.425446 
	C343.642059,303.586304 339.607605,307.199921 335.494904,310.722168 
	C333.651703,312.300751 331.440918,314.044800 333.732574,316.299255 
	C334.478241,317.032806 337.712402,316.189545 339.103760,315.136475 
	C343.384003,311.896759 347.323334,308.206665 352.168945,304.023621 
	C351.918976,307.692810 351.440125,310.189941 351.709534,312.603516 
	C351.852539,313.884613 353.293640,315.020813 354.148712,316.222443 
	C355.151428,315.163605 356.896637,314.190674 357.030762,313.031372 
	C357.677734,307.439270 357.890747,301.796936 357.961945,295.407349 
z"/>
<path fill="#DFDEDE" opacity="1.000000" stroke="none" 
	d="
M380.929199,113.516426 
	C377.300537,114.113647 378.051758,111.466240 378.045135,109.462341 
	C377.988617,92.426224 378.008026,75.389801 377.917389,58.353931 
	C377.908264,56.634422 377.322845,54.917980 376.592590,52.659454 
	C376.149109,51.084251 376.117920,50.049713 376.313599,48.779984 
	C376.721954,47.688469 376.903473,46.832146 377.084991,45.975822 
	C378.085114,45.982677 379.085266,45.989536 380.460449,45.993256 
	C380.890076,68.344620 380.944641,90.699120 380.929199,113.516426 
z"/>
<path fill="#949393" opacity="1.000000" stroke="none" 
	d="
M375.990051,92.000397 
	C376.011719,96.024956 376.033356,100.049500 376.030396,104.536652 
	C374.782745,104.599785 373.359375,104.476585 372.368134,103.757576 
	C363.669891,97.448082 355.004028,91.091728 346.418243,84.630142 
	C338.930389,78.994850 331.614594,73.130814 324.121368,67.502853 
	C314.525421,60.295612 304.779968,53.287369 295.185211,46.078552 
	C280.500732,35.045662 265.873322,23.936495 251.263763,12.804529 
	C248.741562,10.882708 246.427658,8.687524 244.016235,6.239691 
	C250.386459,5.650007 256.757965,5.439259 263.559998,5.693738 
	C264.346680,7.558088 264.243927,9.476298 265.138123,10.266808 
	C269.089600,13.760070 273.180298,17.139177 277.495697,20.167635 
	C284.617767,25.165792 292.108917,29.644815 299.154694,34.743126 
	C306.872864,40.327991 314.195709,46.455902 321.818329,52.177284 
	C327.045227,56.100483 332.534210,59.672539 337.825989,63.511848 
	C344.360687,68.252922 350.827393,73.088226 357.295654,77.920105 
	C363.545563,82.588867 369.760040,87.305038 375.990051,92.000397 
z"/>
<path fill="#9D9D9D" opacity="1.000000" stroke="none" 
	d="
M376.086731,49.015175 
	C376.117920,50.049713 376.149109,51.084251 376.232452,52.502289 
	C376.191071,57.615250 376.097534,62.344711 375.614563,67.532120 
	C371.510651,65.346016 367.825775,62.659195 364.075317,60.067234 
	C357.267944,55.362602 350.266571,50.923462 343.624115,45.998638 
	C330.316040,36.131847 316.996552,26.258142 304.120605,15.844735 
	C300.343018,12.789638 294.071533,12.305066 293.059631,5.864998 
	C293.077209,5.626495 293.114624,5.149667 293.114624,5.149667 
	C300.101166,5.126320 307.087738,5.102973 314.540894,5.021839 
	C316.069214,5.049232 317.130981,5.134412 318.598297,5.641675 
	C321.161407,8.450126 323.041656,11.192139 325.540680,13.140485 
	C329.402679,16.151451 333.844452,18.411993 337.758423,21.364525 
	C344.473114,26.429796 350.808624,32.005775 357.607330,36.949234 
	C363.549805,41.270096 369.910675,45.015526 376.086731,49.015175 
z"/>
<path fill="#969696" opacity="1.000000" stroke="none" 
	d="
M376.014404,91.550926 
	C369.760040,87.305038 363.545563,82.588867 357.295654,77.920105 
	C350.827393,73.088226 344.360687,68.252922 337.825989,63.511848 
	C332.534210,59.672539 327.045227,56.100483 321.818329,52.177284 
	C314.195709,46.455902 306.872864,40.327991 299.154694,34.743126 
	C292.108917,29.644815 284.617767,25.165792 277.495697,20.167635 
	C273.180298,17.139177 269.089600,13.760070 265.138123,10.266808 
	C264.243927,9.476298 264.346680,7.558088 263.983124,5.802549 
	C265.022400,5.329868 266.069061,5.213602 267.610718,5.445015 
	C269.403687,6.206001 270.701660,6.619308 272.058960,7.367816 
	C279.727478,13.459648 287.264526,19.314789 294.961761,24.951166 
	C308.432892,34.815517 322.098145,44.416542 335.500641,54.372173 
	C346.459167,62.512383 357.086395,71.097946 368.019012,79.274185 
	C370.315002,80.991318 373.302795,81.783401 375.971863,83.001732 
	C375.994141,85.701637 376.016418,88.401550 376.014404,91.550926 
z"/>
<path fill="#BCBCBC" opacity="1.000000" stroke="none" 
	d="
M271.999603,7.032615 
	C270.701660,6.619308 269.403687,6.206001 268.007416,5.450923 
	C275.992706,5.078576 284.076324,5.047999 292.637268,5.083545 
	C293.114624,5.149667 293.077209,5.626495 292.638519,5.885163 
	C285.466431,6.440093 278.733002,6.736353 271.999603,7.032615 
z"/>
<path fill="#BCBCBC" opacity="1.000000" stroke="none" 
	d="
M208.858124,4.760252 
	C208.425507,5.132754 207.852066,5.278424 207.140594,5.196811 
	C207.574158,4.824158 208.145737,4.678789 208.858124,4.760252 
z"/>
<path fill="#A2A2A2" opacity="1.000000" stroke="none" 
	d="
M376.313568,48.779984 
	C369.910675,45.015526 363.549805,41.270096 357.607330,36.949234 
	C350.808624,32.005775 344.473114,26.429796 337.758423,21.364525 
	C333.844452,18.411993 329.402679,16.151451 325.540680,13.140485 
	C323.041656,11.192139 321.161407,8.450126 318.984894,5.740808 
	C331.333069,5.562840 343.700195,5.707823 356.656555,6.097637 
	C357.828705,6.241050 358.411652,6.139631 358.994598,6.038212 
	C370.214325,9.678201 376.877106,16.206114 376.902191,31.628025 
	C376.909637,36.221039 376.693634,40.814415 376.832520,45.691727 
	C376.903473,46.832146 376.721954,47.688469 376.313568,48.779984 
z"/>
<path fill="#BCBCBC" opacity="1.000000" stroke="none" 
	d="
M358.859680,5.815551 
	C358.411652,6.139631 357.828705,6.241050 357.115479,6.101716 
	C357.565063,5.771606 358.144897,5.682249 358.859680,5.815551 
z"/>
<path fill="#747474" opacity="1.000000" stroke="none" 
	d="
M234.979156,99.865089 
	C233.918976,99.921265 232.858795,99.977432 231.403046,100.081413 
	C223.310211,100.072609 215.612930,100.015999 207.408325,99.566681 
	C205.298706,97.132309 204.049149,94.603882 202.028488,93.139496 
	C195.768906,88.603165 189.089233,84.648445 182.804718,80.144135 
	C171.621933,72.129074 160.585251,63.909035 149.533524,55.712627 
	C141.075211,49.439610 132.701859,43.052170 124.265518,36.749363 
	C113.185890,28.471752 102.039207,20.282995 91.022835,11.922327 
	C88.772408,10.214405 86.971138,7.914650 84.962822,5.887712 
	C84.962822,5.887713 84.949722,5.425621 84.928963,5.194976 
	C93.955093,5.063047 103.001984,5.161765 112.516281,5.701609 
	C113.753166,7.478659 114.192986,9.328606 115.345291,10.067614 
	C123.198723,15.104257 129.169586,23.008915 138.701965,25.496531 
	C139.139404,25.610685 139.480865,26.098221 139.863434,26.416162 
	C146.927399,32.286667 153.892151,38.282242 161.086548,43.988235 
	C166.527893,48.303856 172.318268,52.176186 177.854401,56.376179 
	C188.454330,64.417816 198.908691,72.652885 209.568222,80.613876 
	C217.089310,86.230942 224.868942,91.500893 232.478302,97.001724 
	C233.478958,97.725113 234.153549,98.899559 234.979156,99.865089 
z"/>
<path fill="#7E7D7D" opacity="1.000000" stroke="none" 
	d="
M282.982117,99.869110 
	C274.628265,99.899979 266.274384,99.930840 257.408295,99.582573 
	C254.187561,96.620018 251.710907,93.721764 248.721298,91.520050 
	C242.862564,87.205330 236.587097,83.456879 230.723618,79.148125 
	C222.750458,73.289085 215.055527,67.053024 207.142960,61.109531 
	C197.555374,53.907856 187.871338,46.834454 178.217636,39.720993 
	C169.562210,33.343136 160.748337,27.169292 152.279190,20.553604 
	C146.925751,16.371754 142.076706,11.544222 137.014740,6.707064 
	C137.059158,6.012011 137.090225,5.616187 137.121292,5.220362 
	C143.434128,5.184908 149.746979,5.149455 156.526184,5.076518 
	C157.738678,5.117603 158.484787,5.196172 159.617401,5.695847 
	C161.430344,7.604374 162.673065,9.343968 164.312775,10.538703 
	C175.838806,18.936762 187.497040,27.153513 199.013168,35.564934 
	C209.208115,43.011364 219.229324,50.695469 229.414352,58.155724 
	C235.113174,62.329941 241.057404,66.168457 246.770264,70.324272 
	C256.882904,77.680702 266.992249,85.048363 276.899017,92.676216 
	C279.331024,94.548759 280.975555,97.444031 282.982117,99.869110 
z"/>
<path fill="#7A7A7A" opacity="1.000000" stroke="none" 
	d="
M137.001419,7.006292 
	C142.076706,11.544222 146.925751,16.371754 152.279190,20.553604 
	C160.748337,27.169292 169.562210,33.343136 178.217636,39.720993 
	C187.871338,46.834454 197.555374,53.907856 207.142960,61.109531 
	C215.055527,67.053024 222.750458,73.289085 230.723618,79.148125 
	C236.587097,83.456879 242.862564,87.205330 248.721298,91.520050 
	C251.710907,93.721764 254.187561,96.620018 256.940796,99.536560 
	C249.962326,99.903809 242.939102,99.937935 235.447510,99.918571 
	C234.153549,98.899559 233.478958,97.725113 232.478302,97.001724 
	C224.868942,91.500893 217.089310,86.230942 209.568222,80.613876 
	C198.908691,72.652885 188.454330,64.417816 177.854401,56.376179 
	C172.318268,52.176186 166.527893,48.303856 161.086548,43.988235 
	C153.892151,38.282242 146.927399,32.286667 139.863434,26.416162 
	C139.480865,26.098221 139.139404,25.610685 138.701965,25.496531 
	C129.169586,23.008915 123.198723,15.104257 115.345291,10.067614 
	C114.192986,9.328606 113.753166,7.478659 112.969246,5.808784 
	C116.300751,5.363642 119.646698,5.252453 123.581284,5.534069 
	C128.447098,6.286680 132.724258,6.646487 137.001419,7.006292 
z"/>
<path fill="#969696" opacity="1.000000" stroke="none" 
	d="
M137.014740,6.707065 
	C132.724258,6.646487 128.447098,6.286680 124.032372,5.560346 
	C127.989326,5.149528 132.083847,5.105238 136.649826,5.140656 
	C137.090225,5.616187 137.059158,6.012011 137.014740,6.707065 
z"/>
<path fill="#696969" opacity="1.000000" stroke="none" 
	d="
M181.981720,99.850861 
	C173.626404,99.890839 165.271103,99.930817 156.403000,99.567047 
	C153.484573,97.125092 151.069244,95.098175 148.675522,93.046059 
	C144.886292,89.797600 141.335190,86.216461 137.280472,83.344910 
	C130.470276,78.521912 123.157692,74.402557 116.401535,69.510597 
	C109.434563,64.465973 102.977158,58.723820 96.120796,53.518696 
	C86.602715,46.292885 76.844032,39.383743 67.335228,32.146069 
	C60.913025,27.257769 54.779221,21.992022 48.431126,17.003645 
	C47.196358,16.033356 45.575302,15.548529 44.120110,14.866038 
	C39.830780,12.854330 34.731316,11.760371 33.941219,5.815289 
	C42.351673,5.818843 50.762131,5.822399 59.624557,6.224486 
	C60.273895,7.074359 60.344913,7.690225 60.687088,7.952987 
	C69.358994,14.612329 77.942986,21.394861 86.788185,27.817303 
	C95.231377,33.947861 104.092377,39.504734 112.508430,45.670429 
	C119.999702,51.158627 127.107773,57.167747 134.431793,62.886997 
	C141.725128,68.582298 148.944061,74.386719 156.442200,79.801888 
	C163.203537,84.684952 170.406204,88.956192 177.180252,93.822945 
	C179.188004,95.265396 180.403290,97.810844 181.981720,99.850861 
z"/>
<path fill="#6F6E6E" opacity="1.000000" stroke="none" 
	d="
M182.449127,99.908424 
	C180.403290,97.810844 179.188004,95.265396 177.180252,93.822945 
	C170.406204,88.956192 163.203537,84.684952 156.442200,79.801888 
	C148.944061,74.386719 141.725128,68.582298 134.431793,62.886997 
	C127.107773,57.167747 119.999702,51.158627 112.508430,45.670429 
	C104.092377,39.504734 95.231377,33.947861 86.788185,27.817303 
	C77.942986,21.394861 69.358994,14.612329 60.687088,7.952987 
	C60.344913,7.690225 60.273895,7.074359 60.042084,6.269574 
	C68.048141,5.896121 76.088654,5.876114 84.545990,5.871909 
	C86.971138,7.914650 88.772408,10.214405 91.022835,11.922327 
	C102.039207,20.282995 113.185890,28.471752 124.265518,36.749363 
	C132.701859,43.052170 141.075211,49.439610 149.533524,55.712627 
	C160.585251,63.909035 171.621933,72.129074 182.804718,80.144135 
	C189.089233,84.648445 195.768906,88.603165 202.028488,93.139496 
	C204.049149,94.603882 205.298706,97.132309 206.941254,99.513962 
	C198.959839,99.891289 190.938187,99.928635 182.449127,99.908424 
z"/>
<path fill="#636363" opacity="1.000000" stroke="none" 
	d="
M33.575333,5.797787 
	C34.731316,11.760371 39.830780,12.854330 44.120110,14.866038 
	C45.575302,15.548529 47.196358,16.033356 48.431126,17.003645 
	C54.779221,21.992022 60.913025,27.257769 67.335228,32.146069 
	C76.844032,39.383743 86.602715,46.292885 96.120796,53.518696 
	C102.977158,58.723820 109.434563,64.465973 116.401535,69.510597 
	C123.157692,74.402557 130.470276,78.521912 137.280472,83.344910 
	C141.335190,86.216461 144.886292,89.797600 148.675522,93.046059 
	C151.069244,95.098175 153.484573,97.125092 155.936523,99.508896 
	C148.968079,99.920090 141.953323,99.985687 134.473312,100.107063 
	C133.249878,100.093712 132.491684,100.024574 131.309082,99.549469 
	C128.479126,97.643883 125.924377,96.337151 123.693878,94.611336 
	C113.942528,87.066368 104.408661,79.235565 94.553856,71.830574 
	C86.971962,66.133476 78.890190,61.103004 71.287193,55.432213 
	C64.095612,50.068275 57.389561,44.053391 50.198322,38.688961 
	C39.505821,30.712700 28.611990,23.003342 17.704424,15.321559 
	C16.031582,14.143438 13.826221,13.721455 11.867146,12.949764 
	C12.421117,12.084662 12.975086,11.219561 14.072729,10.118180 
	C15.157186,9.297801 15.697971,8.713701 16.238756,8.129601 
	C20.874723,7.340953 25.510691,6.552305 30.589542,5.633771 
	C31.758101,5.596019 32.483772,5.688152 33.575333,5.797787 
z"/>
<path fill="#5C5C5C" opacity="1.000000" stroke="none" 
	d="
M11.583379,13.106990 
	C13.826221,13.721455 16.031582,14.143438 17.704424,15.321559 
	C28.611990,23.003342 39.505821,30.712700 50.198322,38.688961 
	C57.389561,44.053391 64.095612,50.068275 71.287193,55.432213 
	C78.890190,61.103004 86.971962,66.133476 94.553856,71.830574 
	C104.408661,79.235565 113.942528,87.066368 123.693878,94.611336 
	C125.924377,96.337151 128.479126,97.643883 130.932831,99.489578 
	C121.291977,99.877846 111.602974,99.920013 101.402939,99.561264 
	C99.902374,98.099594 99.055832,96.838150 97.898193,96.013336 
	C93.262642,92.710548 88.377441,89.743233 83.863777,86.287193 
	C71.796387,77.047409 59.919491,67.558846 47.853500,58.317192 
	C45.438889,56.467781 42.500053,55.311485 39.849201,53.756725 
	C39.012375,53.265919 38.275726,52.568951 37.581169,51.877945 
	C35.906502,50.211842 34.454350,48.273457 32.605705,46.840656 
	C28.344496,43.537960 23.936272,40.420170 19.521017,37.322392 
	C15.368918,34.409252 11.637994,30.517107 5.892395,31.030369 
	C5.644816,29.302874 5.397237,27.575377 5.495820,25.349648 
	C6.509679,22.827116 7.177376,20.802822 7.845072,18.778526 
	C8.996585,16.940422 10.148099,15.102320 11.583379,13.106990 
z"/>
<path fill="#555555" opacity="1.000000" stroke="none" 
	d="
M5.879649,31.487511 
	C11.637994,30.517107 15.368918,34.409252 19.521017,37.322392 
	C23.936272,40.420170 28.344496,43.537960 32.605705,46.840656 
	C34.454350,48.273457 35.906502,50.211842 37.581169,51.877945 
	C38.275726,52.568951 39.012375,53.265919 39.849201,53.756725 
	C42.500053,55.311485 45.438889,56.467781 47.853500,58.317192 
	C59.919491,67.558846 71.796387,77.047409 83.863777,86.287193 
	C88.377441,89.743233 93.262642,92.710548 97.898193,96.013336 
	C99.055832,96.838150 99.902374,98.099594 100.936966,99.498444 
	C91.294235,99.880020 81.606445,99.923500 71.449875,99.549507 
	C67.263702,92.696693 62.381687,87.643661 54.999157,85.474800 
	C53.622360,85.070320 52.004208,84.699455 51.057606,83.752892 
	C46.595871,79.291328 42.119766,75.069267 36.685764,71.570747 
	C28.458544,66.273903 21.029264,59.736073 13.283828,53.696186 
	C12.779161,53.302647 12.578724,52.465736 12.049403,52.166504 
	C10.042284,51.031849 7.958011,50.033672 5.902594,48.984451 
	C5.890697,43.304520 5.878799,37.624584 5.879649,31.487511 
z"/>
<path fill="#4F4E4E" opacity="1.000000" stroke="none" 
	d="
M5.760659,49.349419 
	C7.958011,50.033672 10.042284,51.031849 12.049403,52.166504 
	C12.578724,52.465736 12.779161,53.302647 13.283828,53.696186 
	C21.029264,59.736073 28.458544,66.273903 36.685764,71.570747 
	C42.119766,75.069267 46.595871,79.291328 51.057606,83.752892 
	C52.004208,84.699455 53.622360,85.070320 54.999157,85.474800 
	C62.381687,87.643661 67.263702,92.696693 70.984444,99.485092 
	C64.967735,99.895699 58.947685,99.953232 52.455490,99.602234 
	C51.039772,97.962257 50.323647,96.402466 49.109585,95.561508 
	C45.599567,93.130180 41.246685,91.599167 38.395485,88.601227 
	C32.994770,82.922569 27.118143,77.956230 20.409128,74.077446 
	C15.662606,71.333282 10.477112,69.348404 5.487579,67.024574 
	C5.396976,66.851433 5.306373,66.678299 5.073965,66.248276 
	C5.161015,60.565716 5.389870,55.140053 5.760659,49.349419 
z"/>
<path fill="#6F6E6E" opacity="1.000000" stroke="none" 
	d="
M7.525572,18.884640 
	C7.177376,20.802822 6.509679,22.827116 5.512851,24.955790 
	C5.112819,24.597355 5.041919,24.134541 4.929003,23.322332 
	C5.660016,21.645542 6.433043,20.318148 7.525572,18.884640 
z"/>
<path fill="#848484" opacity="1.000000" stroke="none" 
	d="
M283.399292,99.916977 
	C280.975555,97.444031 279.331024,94.548759 276.899017,92.676216 
	C266.992249,85.048363 256.882904,77.680702 246.770264,70.324272 
	C241.057404,66.168457 235.113174,62.329941 229.414352,58.155724 
	C219.229324,50.695469 209.208115,43.011364 199.013168,35.564934 
	C187.497040,27.153513 175.838806,18.936762 164.312775,10.538703 
	C162.673065,9.343968 161.430344,7.604374 159.978561,5.796453 
	C168.673676,5.394969 177.394135,5.313986 186.542358,5.354231 
	C187.672592,6.826964 188.038803,8.610463 189.131317,9.460840 
	C197.040436,15.617060 205.047897,21.650440 213.117844,27.595652 
	C223.310562,35.104740 233.618790,42.456886 243.827057,49.945084 
	C252.489746,56.299511 261.114563,62.706787 269.695404,69.171272 
	C279.464752,76.531128 289.174988,83.969589 298.893463,91.396736 
	C302.255981,93.966507 305.566162,96.604744 308.940338,99.547638 
	C302.300110,99.934425 295.619812,99.985298 288.472961,100.077408 
	C286.609741,100.067368 285.213074,100.016098 283.399292,99.916977 
z"/>
<path fill="#989898" opacity="1.000000" stroke="none" 
	d="
M15.898854,8.122921 
	C15.697971,8.713701 15.157186,9.297801 14.303575,9.914595 
	C14.513483,9.336940 15.036218,8.726590 15.898854,8.122921 
z"/>
<path fill="#494949" opacity="1.000000" stroke="none" 
	d="
M5.362346,67.456299 
	C10.477112,69.348404 15.662606,71.333282 20.409128,74.077446 
	C27.118143,77.956230 32.994770,82.922569 38.395485,88.601227 
	C41.246685,91.599167 45.599567,93.130180 49.109585,95.561508 
	C50.323647,96.402466 51.039772,97.962257 51.988838,99.556313 
	C48.252533,101.586754 44.510735,103.254593 40.456154,105.078812 
	C30.644739,97.551575 21.203487,89.794296 11.567667,82.286743 
	C10.483723,81.442215 8.299751,82.009544 6.253559,81.954575 
	C5.666524,77.287338 5.451819,72.587677 5.362346,67.456299 
z"/>
<path fill="#989898" opacity="1.000000" stroke="none" 
	d="
M272.058960,7.367815 
	C278.733002,6.736353 285.466431,6.440093 292.620972,6.123666 
	C294.071533,12.305066 300.343018,12.789638 304.120605,15.844735 
	C316.996552,26.258142 330.316040,36.131847 343.624115,45.998638 
	C350.266571,50.923462 357.267944,55.362602 364.075317,60.067234 
	C367.825775,62.659195 371.510651,65.346016 375.589661,67.998322 
	C375.976837,72.694450 375.999451,77.382301 375.996948,82.535950 
	C373.302795,81.783401 370.315002,80.991318 368.019012,79.274185 
	C357.086395,71.097946 346.459167,62.512383 335.500641,54.372173 
	C322.098145,44.416542 308.432892,34.815517 294.961761,24.951166 
	C287.264526,19.314789 279.727478,13.459648 272.058960,7.367815 
z"/>
<path fill="#F6F6F5" opacity="1.000000" stroke="none" 
	d="
M358.109802,295.789886 
	C357.890747,301.796936 357.677734,307.439270 357.030762,313.031372 
	C356.896637,314.190674 355.151428,315.163605 354.148712,316.222443 
	C353.293640,315.020813 351.852539,313.884613 351.709534,312.603516 
	C351.440125,310.189941 351.918976,307.692810 352.168945,304.023621 
	C347.323334,308.206665 343.384003,311.896759 339.103760,315.136475 
	C337.712402,316.189545 334.478241,317.032806 333.732574,316.299255 
	C331.440918,314.044800 333.651703,312.300751 335.494904,310.722168 
	C339.607605,307.199921 343.642059,303.586304 348.372925,299.425446 
	C344.895508,299.053925 342.259918,299.047791 339.801361,298.384979 
	C338.693420,298.086273 337.517548,296.592529 337.197906,295.416626 
	C337.033936,294.813171 338.768402,292.896759 339.502594,292.971527 
	C345.674377,293.600006 351.813202,294.552429 358.109802,295.789886 
z"/>
</svg>