<svg width="w-full" height="w-full" viewBox="0 0 90 80" fill="none" xmlns="http://www.w3.org/2000/svg">
<path d="M22.5 73.3334C20.4375 73.3334 18.6725 72.6812 17.205 71.3767C15.7375 70.0723 15.0025 68.5023 15 66.6667V13.3334C15 11.5001 15.735 9.93119 17.205 8.62675C18.675 7.3223 20.44 6.66897 22.5 6.66675H67.5C69.5625 6.66675 71.3288 7.32008 72.7988 8.62675C74.2687 9.93341 75.0025 11.5023 75 13.3334V66.6667C75 68.5001 74.2663 70.0701 72.7988 71.3767C71.3312 72.6834 69.565 73.3356 67.5 73.3334H22.5ZM42.1875 55.0001L37.875 50.0001C37.5 49.5556 37 49.3334 36.375 49.3334C35.75 49.3334 35.25 49.5556 34.875 50.0001L28.5938 57.3334C28.0938 57.889 28.015 58.4723 28.3575 59.0834C28.7 59.6945 29.2787 60.0001 30.0937 60.0001H59.9062C60.7188 60.0001 61.2962 59.6945 61.6388 59.0834C61.9813 58.4723 61.9038 57.889 61.4062 57.3334L52.3125 46.7501C51.9375 46.3056 51.4375 46.0834 50.8125 46.0834C50.1875 46.0834 49.6875 46.3056 49.3125 46.7501L42.1875 55.0001Z" fill="#EF7D00"/>
</svg>
