<svg width="w-full" height="w-full" viewBox="0 0 91 90" fill="none" xmlns="http://www.w3.org/2000/svg">
<path d="M84.601 20.8969L68.5592 54.5836C68.5424 54.6243 68.5236 54.6642 68.503 54.7031L56.476 79.9594C56.323 80.3018 56.103 80.6102 55.829 80.8664C55.555 81.1226 55.2325 81.3213 54.8805 81.451C54.5285 81.5807 54.1541 81.6386 53.7794 81.6214C53.4047 81.6042 53.0372 81.5123 52.6985 81.3509C52.3599 81.1896 52.057 80.9621 51.8076 80.6819C51.5581 80.4017 51.3673 80.0745 51.2462 79.7195C51.1252 79.3644 51.0764 78.9887 51.1027 78.6146C51.129 78.2404 51.2299 77.8752 51.3995 77.5406L61.5385 56.25H14.5628C14.0062 56.2504 13.462 56.0857 12.9991 55.7767C12.5361 55.4677 12.1753 55.0283 11.9623 54.5141C11.7492 53.9999 11.6935 53.4341 11.8022 52.8882C11.9109 52.3423 12.1791 51.841 12.5729 51.4477C20.7951 43.2274 20.7951 29.8976 12.5729 21.6773C12.1791 21.284 11.9109 20.7827 11.8022 20.2368C11.6935 19.6909 11.7492 19.1251 11.9623 18.6109C12.1753 18.0967 12.5361 17.6573 12.9991 17.3483C13.462 17.0393 14.0062 16.8746 14.5628 16.875H82.0628C82.5375 16.8752 83.0045 16.9955 83.4202 17.2248C83.836 17.4541 84.1869 17.7849 84.4403 18.1864C84.6936 18.5879 84.8413 19.047 84.8694 19.521C84.8975 19.9949 84.8052 20.4682 84.601 20.8969Z" fill="#EF7D00"/>
</svg>
