<svg width="90" height="90" viewBox="0 0 90 90" fill="none" xmlns="http://www.w3.org/2000/svg">
<path d="M78.75 85.3125H11.25C9.7125 85.3125 8.4375 84.0375 8.4375 82.5C8.4375 80.9625 9.7125 79.6875 11.25 79.6875H78.75C80.2875 79.6875 81.5625 80.9625 81.5625 82.5C81.5625 84.0375 80.2875 85.3125 78.75 85.3125Z" fill="#EF7D00"/>
<path d="M21 31.425H15C12.9375 31.425 11.25 33.1125 11.25 35.175V67.5C11.25 69.5625 12.9375 71.25 15 71.25H21C23.0625 71.25 24.75 69.5625 24.75 67.5V35.175C24.75 33.075 23.0625 31.425 21 31.425Z" fill="#EF7D00"/>
<path d="M48 19.4624H42C39.9375 19.4624 38.25 21.1499 38.25 23.2124V67.4999C38.25 69.5624 39.9375 71.2499 42 71.2499H48C50.0625 71.2499 51.75 69.5624 51.75 67.4999V23.2124C51.75 21.1499 50.0625 19.4624 48 19.4624Z" fill="#EF7D00"/>
<path d="M75 7.5H69C66.9375 7.5 65.25 9.1875 65.25 11.25V67.5C65.25 69.5625 66.9375 71.25 69 71.25H75C77.0625 71.25 78.75 69.5625 78.75 67.5V11.25C78.75 9.1875 77.0625 7.5 75 7.5Z" fill="#EF7D00"/>
</svg>
