<svg width="80" height="90" viewBox="0 0 80 90" fill="none" xmlns="http://www.w3.org/2000/svg">
<path d="M11.4286 5.625C5.125 5.625 0 10.6699 0 16.875V73.125C0 79.3301 5.125 84.375 11.4286 84.375H68.5714C74.875 84.375 80 79.3301 80 73.125V16.875C80 10.6699 74.875 5.625 68.5714 5.625H11.4286ZM58.1786 24.5566L60.75 27.0879C63.5357 29.8301 63.5357 34.2773 60.75 37.0371L56.9286 40.7988L44.25 28.3184L48.0714 24.5566C50.8571 21.8145 55.375 21.8145 58.1786 24.5566ZM21.4107 50.8008L40.1964 32.3086L52.875 44.7891L34.0893 63.2637C33.3571 63.9844 32.4464 64.4941 31.4286 64.7402L20.6964 67.3769C19.7143 67.623 18.6964 67.3418 17.9821 66.6387C17.2679 65.9355 16.9821 64.9336 17.2321 63.9668L19.9107 53.4023C20.1607 52.418 20.6786 51.5039 21.4107 50.7832V50.8008Z" fill="#EF7D00"/>
</svg>
