<svg width="95" height="100" viewBox="0 0 95 100" fill="none" xmlns="http://www.w3.org/2000/svg">
<path d="M7.91697 28.1248C7.91697 25.0859 9.06382 22.1714 11.1052 20.0226C13.1466 17.8737 15.9154 16.6665 18.8024 16.6665H76.1982C79.0852 16.6665 81.854 17.8737 83.8954 20.0226C85.9368 22.1714 87.0836 25.0859 87.0836 28.1248V71.8748C87.0836 73.3796 86.8021 74.8696 86.255 76.2598C85.708 77.6499 84.9062 78.9131 83.8954 79.9771C82.8846 81.0411 81.6846 81.8851 80.3639 82.461C79.0432 83.0368 77.6277 83.3332 76.1982 83.3332H49.3805L41.2659 74.7915C42.7226 71.7207 43.542 68.2498 43.542 64.5832H60.3649C61.1522 64.5832 61.9074 64.2539 62.4641 63.6679C63.0209 63.0818 63.3336 62.287 63.3336 61.4582C63.3336 60.6294 63.0209 59.8345 62.4641 59.2485C61.9074 58.6624 61.1522 58.3332 60.3649 58.3332H42.7226C42.126 56.119 41.2159 54.012 40.023 52.0832H68.2816C69.0689 52.0832 69.824 51.7539 70.3808 51.1679C70.9375 50.5818 71.2503 49.787 71.2503 48.9582C71.2503 48.1294 70.9375 47.3345 70.3808 46.7485C69.824 46.1624 69.0689 45.8332 68.2816 45.8332H34.2913C30.7486 43.2082 26.4301 41.6665 21.7711 41.6665C16.5066 41.6665 11.6774 43.6332 7.91697 46.904V28.1248ZM26.7191 33.3332C25.9317 33.3332 25.1766 33.6624 24.6198 34.2485C24.0631 34.8345 23.7503 35.6294 23.7503 36.4582C23.7503 37.287 24.0631 38.0818 24.6198 38.6679C25.1766 39.2539 25.9317 39.5832 26.7191 39.5832H52.4482C53.2356 39.5832 53.9907 39.2539 54.5474 38.6679C55.1042 38.0818 55.417 37.287 55.417 36.4582C55.417 35.6294 55.1042 34.8345 54.5474 34.2485C53.9907 33.6624 53.2356 33.3332 52.4482 33.3332H26.7191ZM21.7711 83.3332C25.4694 83.3333 29.076 82.1217 32.0905 79.8665L42.4336 90.7498C42.7054 91.0569 43.0332 91.3031 43.3973 91.4739C43.7615 91.6447 44.1546 91.7366 44.5532 91.744C44.9519 91.7514 45.3478 91.6742 45.7175 91.517C46.0871 91.3598 46.4229 91.1259 46.7048 90.8292C46.9867 90.5324 47.209 90.1789 47.3583 89.7898C47.5076 89.4007 47.5809 88.9839 47.5739 88.5643C47.5669 88.1447 47.4796 87.7309 47.3174 87.3476C47.1551 86.9643 46.9211 86.6193 46.6295 86.3332L36.2903 75.4457C38.6036 72.0197 39.7562 67.8748 39.5632 63.6765C39.3701 59.4782 37.8425 55.4699 35.2256 52.2952C32.6087 49.1204 29.0543 46.9633 25.133 46.1701C21.2116 45.3769 17.1509 45.9936 13.6025 47.9212C10.0541 49.8489 7.22392 52.9757 5.56631 56.7996C3.90869 60.6236 3.51977 64.9229 4.46197 69.0074C5.40418 73.092 7.62285 76.7248 10.7618 79.3228C13.9008 81.9207 17.7781 83.3331 21.7711 83.3332ZM21.7711 77.0832C18.6217 77.0832 15.6012 75.7662 13.3742 73.422C11.1472 71.0778 9.89613 67.8984 9.89613 64.5832C9.89613 61.268 11.1472 58.0885 13.3742 55.7443C15.6012 53.4001 18.6217 52.0832 21.7711 52.0832C24.9206 52.0832 27.941 53.4001 30.168 55.7443C32.395 58.0885 33.6461 61.268 33.6461 64.5832C33.6461 67.8984 32.395 71.0778 30.168 73.422C27.941 75.7662 24.9206 77.0832 21.7711 77.0832Z" fill="#EF7D00"/>
</svg>
