<svg width="124" height="124" viewBox="0 0 124 124" fill="none" xmlns="http://www.w3.org/2000/svg">
<path d="M64.3779 25.318C59.5781 25.4045 55.234 28.6053 52.1988 34.2981L46.147 45.7162C45.7225 46.481 45.1068 47.1395 44.3599 47.5708L41.3396 49.3145L39.7158 50.252C31.8566 54.7895 30.0311 61.6026 34.5686 69.4618L42.0686 82.4521C46.6061 90.3113 53.4191 92.1369 61.2783 87.5994L62.9021 86.6619L65.9224 84.9181C66.6693 84.4869 67.5475 84.283 68.422 84.2977L81.3363 84.7658C85.2254 84.9019 88.5246 84.1663 91.1226 82.6663C92.8114 81.6913 94.2102 80.3641 95.2029 78.7084C97.6452 74.6137 97.24 69.2618 94.015 63.6759L76.8025 33.863C73.5775 28.2771 69.1452 25.2502 64.3779 25.318Z" fill="#EF7D00"/>
</svg>
