<svg width="w-full" height="h-full" viewBox="0 0 90 90" fill="none" xmlns="http://www.w3.org/2000/svg">
<path d="M52.5 59.9999C52.5 66.6374 49.6125 72.6374 45 76.7249C41.025 80.3249 35.775 82.4999 30 82.4999C17.5875 82.4999 7.5 72.4124 7.5 59.9999C7.5 51.8424 11.8891 44.6841 18.4047 40.7527C18.6645 40.596 19.0001 40.7142 19.1184 40.9936C22.467 48.905 29.3212 54.8747 37.575 57.1124C39.9375 57.7874 42.4125 58.1249 45 58.1249C47.3569 58.1249 49.5856 57.8366 51.7454 57.3192C52.0307 57.2508 52.317 57.4363 52.3549 57.7272C52.4516 58.4701 52.5 59.2471 52.5 59.9999Z" fill="#EF7D00"/>
<path d="M67.5 30C67.5 32.925 66.9375 35.7375 65.925 38.2875C63.3375 44.8125 57.7875 49.8375 50.925 51.7125C49.05 52.2375 47.0625 52.5 45 52.5C42.9375 52.5 40.95 52.2375 39.075 51.7125C32.2125 49.8375 26.6625 44.8125 24.075 38.2875C23.0625 35.7375 22.5 32.925 22.5 30C22.5 17.5875 32.5875 7.5 45 7.5C57.4125 7.5 67.5 17.5875 67.5 30Z" fill="#EF7D00"/>
<path d="M82.5 59.9999C82.5 72.4124 72.4125 82.4999 60 82.4999C56.534 82.4999 53.2314 81.7154 50.3058 80.2991C49.999 80.1505 49.9404 79.7431 50.1797 79.5002C55.2717 74.3311 58.125 67.3416 58.125 59.9999C58.125 58.7249 58.0125 57.4499 57.825 56.2499L57.696 55.45C57.6612 55.2342 57.7708 55.0212 57.965 54.921C63.7186 51.9494 68.3284 47.0466 70.882 40.9943C71.0001 40.7145 71.3359 40.5962 71.5959 40.7531C78.1112 44.6846 82.5 51.8427 82.5 59.9999Z" fill="#EF7D00"/>
</svg>
