<svg width="w-full" height="h-full" viewBox="0 0 91 90" fill="none" xmlns="http://www.w3.org/2000/svg">
<path d="M79.25 85.3125H11.75C10.2125 85.3125 8.9375 84.0375 8.9375 82.5C8.9375 80.9625 10.2125 79.6875 11.75 79.6875H79.25C80.7875 79.6875 82.0625 80.9625 82.0625 82.5C82.0625 84.0375 80.7875 85.3125 79.25 85.3125Z" fill="#EF7D00"/>
<path d="M21.5 31.425H15.5C13.4375 31.425 11.75 33.1125 11.75 35.175V67.5C11.75 69.5625 13.4375 71.25 15.5 71.25H21.5C23.5625 71.25 25.25 69.5625 25.25 67.5V35.175C25.25 33.075 23.5625 31.425 21.5 31.425Z" fill="#EF7D00"/>
<path d="M48.5 19.4624H42.5C40.4375 19.4624 38.75 21.1499 38.75 23.2124V67.4999C38.75 69.5624 40.4375 71.2499 42.5 71.2499H48.5C50.5625 71.2499 52.25 69.5624 52.25 67.4999V23.2124C52.25 21.1499 50.5625 19.4624 48.5 19.4624Z" fill="#EF7D00"/>
<path d="M75.5 7.5H69.5C67.4375 7.5 65.75 9.1875 65.75 11.25V67.5C65.75 69.5625 67.4375 71.25 69.5 71.25H75.5C77.5625 71.25 79.25 69.5625 79.25 67.5V11.25C79.25 9.1875 77.5625 7.5 75.5 7.5Z" fill="#EF7D00"/>
</svg>
