<svg width="w-full" height="h-full" viewBox="0 0 91 90" fill="none" xmlns="http://www.w3.org/2000/svg">
<path d="M79.4002 49.8L75.9502 46.425L46.8877 75.4501L50.3752 78.9375C53.3002 81.8625 56.3377 83.3251 59.3377 83.3251C62.3377 83.3251 65.3752 81.8625 68.3002 78.9375L79.4002 67.8376C85.3627 61.8376 85.3627 55.8 79.4002 49.8Z" fill="#EF7D00"/>
<path d="M40.5871 10.9874C34.6996 5.0999 28.5121 5.0999 22.6246 10.9874L11.4871 22.0874C5.63711 27.9749 5.63711 34.1624 11.4871 40.0499L14.9371 43.4999L43.9996 14.4374L40.5871 10.9874Z" fill="#EF7D00"/>
<path d="M82.2879 14.7751C77.3754 27.0376 66.1629 43.0501 55.4754 53.5126C53.9379 43.8376 46.2129 36.2626 36.4629 34.9126C46.9629 24.1876 63.0879 12.8251 75.3879 7.87509C77.5629 7.05009 79.7379 7.68759 81.0879 9.03759C82.5129 10.4626 83.1879 12.6001 82.2879 14.7751Z" fill="#EF7D00"/>
<path d="M52.1752 56.5876C51.4252 57.2251 50.6752 57.8626 49.9252 58.4626L43.2127 63.8251C43.2127 63.7126 43.1752 63.5626 43.1752 63.4126C42.6502 59.4001 40.7752 55.6876 37.7377 52.6501C34.6627 49.5751 30.8377 47.7001 26.6377 47.1751C26.5252 47.1751 26.3752 47.1376 26.2627 47.1376L31.7002 40.2751C32.2252 39.6001 32.7877 38.9626 33.3877 38.2876L35.9377 38.6251C44.0002 39.7501 50.4877 46.0876 51.7627 54.1126L52.1752 56.5876Z" fill="#EF7D00"/>
<path d="M39.6126 66.0751C39.6126 70.2001 38.0376 74.1376 35.0376 77.1001C32.7501 79.4251 29.6751 81.0001 25.9251 81.4501L16.7376 82.4626C11.7126 83.0251 7.40009 78.7126 7.96259 73.6501L8.97509 64.4251C9.87509 56.2126 16.7376 50.9626 24.0126 50.8126C24.7251 50.7751 25.5126 50.8126 26.2626 50.8876C29.4501 51.3001 32.5251 52.7626 35.1126 55.3126C37.6251 57.8251 39.0501 60.7876 39.4626 63.9001C39.5376 64.6501 39.6126 65.3626 39.6126 66.0751Z" fill="#EF7D00"/>
</svg>
