<svg width="w-full" height="h-full" viewBox="0 0 90 90" fill="none" xmlns="http://www.w3.org/2000/svg">
<g id="fluent:design-ideas-24-filled">
<path id="Vector" d="M20.9062 7.77749C21.3837 8.00704 21.7866 8.36678 22.0685 8.81526C22.3505 9.26374 22.5001 9.78273 22.5 10.3125C22.5 13.425 23.67 15.2175 25.1362 17.4L25.245 17.5575C26.49 19.41 28.125 21.8362 28.125 25.3125C28.125 28.86 26.3363 31.9875 23.61 33.8437C24.3275 34.4437 24.96 35.185 25.5075 36.0675C27.2925 38.955 28.125 43.3687 28.125 49.7062C28.125 56.1262 27.2625 63.8362 25.8563 69.9937C25.1588 73.0537 24.2925 75.8775 23.2613 77.9962C22.7766 79.0517 22.1315 80.0257 21.3487 80.8837C20.5762 81.675 19.3875 82.5187 17.8125 82.5187C16.2375 82.5187 15.0488 81.675 14.28 80.8837C13.4973 80.0257 12.8521 79.0517 12.3675 77.9962C11.3325 75.8737 10.4663 73.0537 9.76875 69.99C8.30469 63.3255 7.54427 56.5257 7.5 49.7025C7.5 43.365 8.3325 38.955 10.1175 36.0675C10.6246 35.2278 11.2655 34.4766 12.015 33.8437C10.6236 32.8979 9.48474 31.626 8.69776 30.139C7.91077 28.6519 7.49956 26.9949 7.5 25.3125C7.5 23.9325 7.5 21.5587 8.93625 18.495C10.3425 15.495 13.0163 12.0487 17.9288 8.11499C18.3428 7.7838 18.842 7.57639 19.3688 7.51668C19.8956 7.45696 20.4286 7.54737 20.9062 7.77749ZM37.5 55.9387C35.5137 55.6036 33.5815 55.0032 31.755 54.1537C31.835 52.6262 31.875 51.1437 31.875 49.7062C31.875 48.1837 31.8275 46.7287 31.7325 45.3412C33.3937 46.71 35.355 47.7262 37.5 48.2775V39.375C37.5 37.8831 38.0926 36.4524 39.1475 35.3975C40.2024 34.3426 41.6332 33.75 43.125 33.75H56.25C56.2504 30.8887 55.4324 28.0871 53.8925 25.6755C52.3526 23.2639 50.1552 21.3431 47.5593 20.1396C44.9635 18.9361 42.0776 18.5001 39.2421 18.8831C36.4066 19.2661 33.7398 20.4521 31.5562 22.3012C30.9075 19.2487 29.4 17.0137 28.4363 15.585L28.2863 15.36C31.6555 12.9849 35.6124 11.5811 39.7251 11.3017C43.8379 11.0223 47.9483 11.8782 51.6078 13.7758C55.2672 15.6734 58.335 18.5399 60.4763 22.0624C62.6176 25.5848 63.75 29.6278 63.75 33.75H76.875C78.3668 33.75 79.7976 34.3426 80.8525 35.3975C81.9074 36.4524 82.5 37.8831 82.5 39.375V73.125C82.5 74.6168 81.9074 76.0476 80.8525 77.1025C79.7976 78.1574 78.3668 78.75 76.875 78.75H43.125C41.6332 78.75 40.2024 78.1574 39.1475 77.1025C38.0926 76.0476 37.5 74.6168 37.5 73.125V55.9387ZM45 55.9387V71.25H75V41.25H62.4713C61.1301 45.0325 58.8032 48.3883 55.7311 50.9706C52.659 53.5529 48.953 55.268 44.9963 55.9387M54.2438 41.25H45V48.2775C46.9305 47.7792 48.7423 46.9011 50.3295 45.6945C51.9166 44.4878 53.2473 42.9769 54.2438 41.25Z" fill="#EF7D00"/>
</g>
</svg>
