<svg width="w-full" height="h-full" viewBox="0 0 90 90" fill="none" xmlns="http://www.w3.org/2000/svg">
<g id="vuesax/bold/scissor">
<g id="scissor">
<path id="Vector" d="M20.625 37.5C27.8737 37.5 33.75 31.6237 33.75 24.375C33.75 17.1263 27.8737 11.25 20.625 11.25C13.3763 11.25 7.5 17.1263 7.5 24.375C7.5 31.6237 13.3763 37.5 20.625 37.5Z" fill="#EF7D00"/>
<path id="Vector_2" d="M20.625 78.75C27.8737 78.75 33.75 72.8737 33.75 65.625C33.75 58.3763 27.8737 52.5 20.625 52.5C13.3763 52.5 7.5 58.3763 7.5 65.625C7.5 72.8737 13.3763 78.75 20.625 78.75Z" fill="#EF7D00"/>
<path id="Vector_3" d="M57.1875 44.925L84.1875 24.75C85.425 23.8125 85.6875 22.05 84.75 20.8125C83.8125 19.575 82.05 19.3125 80.8125 20.25L52.5 41.4375L31.6875 25.8375C30.45 24.9375 28.6875 25.1625 27.75 26.4C26.8125 27.6375 27.075 29.4 28.3125 30.3375L47.8125 44.925L25.6875 61.5C24.45 62.4375 24.1875 64.2001 25.125 65.4375C25.6875 66.1875 26.5125 66.5625 27.375 66.5625C27.975 66.5625 28.5375 66.375 29.0625 66L52.5 48.45L80.8125 69.6375C81.3 70.0125 81.9 70.2 82.5 70.2C83.3625 70.2 84.1875 69.825 84.75 69.075C85.6875 67.8375 85.425 66.0751 84.1875 65.1376L57.1875 44.925Z" fill="#EF7D00"/>
</g>
</g>
</svg>
