<svg width="w-full" height="h-full" viewBox="0 0 90 90" fill="none" xmlns="http://www.w3.org/2000/svg">
<path d="M26.25 18.75C26.25 12.525 31.275 7.5 37.5 7.5H52.5C58.725 7.5 63.75 12.525 63.75 18.75C63.75 20.8125 62.0625 22.5 60 22.5H30C27.9375 22.5 26.25 20.8125 26.25 18.75Z" fill="#EF7D00"/>
<path d="M66.5625 56.25C66.5625 57.7875 65.2875 59.0625 63.75 59.0625H60V71.25C60 77.475 54.975 82.5 48.75 82.5H41.25C35.025 82.5 30 77.475 30 71.25V59.0625H26.25C24.7125 59.0625 23.4375 57.7875 23.4375 56.25C23.4375 54.7125 24.7125 53.4375 26.25 53.4375H63.75C65.2875 53.4375 66.5625 54.7125 66.5625 56.25Z" fill="#EF7D00"/>
<path d="M67.5 26.25H22.5C15 26.25 11.25 30 11.25 37.5V56.25C11.25 63.75 15 67.5 22.5 67.5H25.45C25.8918 67.5 26.25 67.1418 26.25 66.7V63.6125C26.25 63.1707 25.8901 62.8176 25.4516 62.7635C22.2222 62.3645 19.6875 59.58 19.6875 56.25C19.6875 52.65 22.65 49.6875 26.25 49.6875H63.75C67.35 49.6875 70.3125 52.65 70.3125 56.25C70.3125 59.58 67.7778 62.3645 64.5484 62.7635C64.1099 62.8176 63.75 63.1707 63.75 63.6125V66.7C63.75 67.1418 64.1082 67.5 64.55 67.5H67.5C75 67.5 78.75 63.75 78.75 56.25V37.5C78.75 30 75 26.25 67.5 26.25ZM37.5 44.0625H26.25C24.7125 44.0625 23.4375 42.7875 23.4375 41.25C23.4375 39.7125 24.7125 38.4375 26.25 38.4375H37.5C39.0375 38.4375 40.3125 39.7125 40.3125 41.25C40.3125 42.7875 39.0375 44.0625 37.5 44.0625Z" fill="#EF7D00"/>
</svg>
