<svg width="124" height="124" viewBox="0 0 124 124" fill="none" xmlns="http://www.w3.org/2000/svg">
<g id="vuesax/bold/volume-mute">
<g id="volume-mute">
<path id="Vector" d="M64.4848 24.9547C59.685 25.0412 55.3409 28.242 52.3057 33.9349L46.254 45.353C45.8294 46.1177 45.2137 46.7763 44.4668 47.2075L41.4465 48.9513L39.8227 49.8888C31.9636 54.4263 30.138 61.2393 34.6755 69.0985L42.1755 82.0889C46.713 89.948 53.5261 91.7736 61.3852 87.2361L63.009 86.2986L66.0293 84.5548C66.7762 84.1236 67.6544 83.9197 68.529 83.9344L81.4432 84.4025C85.3323 84.5387 88.6315 83.803 91.2296 82.303C92.9183 81.328 94.3171 80.0008 95.3098 78.3452C97.7521 74.2504 97.3469 68.8985 94.1219 63.3126L76.9094 33.4997C73.6844 27.9138 69.2521 24.887 64.4848 24.9547Z" fill="#EF7D00"/>
</g>
</g>
</svg>
