<svg width="90" height="90" viewBox="0 0 90 90" fill="none" xmlns="http://www.w3.org/2000/svg">
<g id="vuesax/bold/brush">
<g id="brush">
<path id="Vector" d="M81.7859 14.7751C76.8734 27.0376 65.6609 43.0501 54.9734 53.5126C53.4359 43.8376 45.7109 36.2626 35.9609 34.9126C46.4609 24.1876 62.5859 12.8251 74.8859 7.87509C77.0609 7.05009 79.2359 7.68759 80.5859 9.03759C82.0109 10.4626 82.6859 12.6001 81.7859 14.7751Z" fill="#EF7D00"/>
<path id="Vector_2" d="M51.6742 56.5876C50.9242 57.2251 50.1742 57.8626 49.4242 58.4626L42.7117 63.8251C42.7117 63.7126 42.6742 63.5626 42.6742 63.4126C42.1492 59.4001 40.2742 55.6876 37.2367 52.6501C34.1617 49.5751 30.3367 47.7001 26.1367 47.1751C26.0242 47.1751 25.8742 47.1376 25.7617 47.1376L31.1992 40.2751C31.7242 39.6001 32.2867 38.9626 32.8867 38.2876L35.4367 38.6251C43.4992 39.7501 49.9867 46.0876 51.2617 54.1126L51.6742 56.5876Z" fill="#EF7D00"/>
<path id="Vector_3" d="M39.1136 66.0751C39.1136 70.2001 37.5386 74.1376 34.5386 77.1001C32.2511 79.4251 29.1761 81.0001 25.4261 81.4501L16.2386 82.4626C11.2136 83.0251 6.90107 78.7126 7.46357 73.6501L8.47607 64.4251C9.37607 56.2126 16.2386 50.9626 23.5136 50.8126C24.2261 50.7751 25.0136 50.8126 25.7636 50.8876C28.9511 51.3001 32.0261 52.7626 34.6136 55.3126C37.1261 57.8251 38.5511 60.7876 38.9636 63.9001C39.0386 64.6501 39.1136 65.3626 39.1136 66.0751Z" fill="#EF7D00"/>
</g>
</g>
</svg>
