<svg width="90" height="90" viewBox="0 0 90 90" fill="none" xmlns="http://www.w3.org/2000/svg">
<g id="vuesax/bold/gallery">
<g id="gallery">
<path id="Vector" d="M9.675 71.2875L9.6 71.3625C8.5875 69.15 7.95 66.6375 7.6875 63.8625C7.95 66.6 8.6625 69.075 9.675 71.2875Z" fill="#EF7D00"/>
<path id="Vector_2" d="M33.7492 38.925C38.6784 38.925 42.6742 34.9291 42.6742 30C42.6742 25.0708 38.6784 21.075 33.7492 21.075C28.8201 21.075 24.8242 25.0708 24.8242 30C24.8242 34.9291 28.8201 38.925 33.7492 38.925Z" fill="#EF7D00"/>
<path id="Vector_3" d="M60.7125 7.5H29.2875C15.6375 7.5 7.5 15.6375 7.5 29.2875V60.7125C7.5 64.8 8.2125 68.3625 9.6 71.3625C12.825 78.4875 19.725 82.5 29.2875 82.5H60.7125C74.3625 82.5 82.5 74.3625 82.5 60.7125V52.125V29.2875C82.5 15.6375 74.3625 7.5 60.7125 7.5ZM76.3875 46.875C73.4625 44.3625 68.7375 44.3625 65.8125 46.875L50.2125 60.2625C47.2875 62.775 42.5625 62.775 39.6375 60.2625L38.3625 59.2125C35.7 56.8875 31.4625 56.6625 28.4625 58.6875L14.4375 68.1C13.6125 66 13.125 63.5625 13.125 60.7125V29.2875C13.125 18.7125 18.7125 13.125 29.2875 13.125H60.7125C71.2875 13.125 76.875 18.7125 76.875 29.2875V47.2875L76.3875 46.875Z" fill="#EF7D00"/>
</g>
</g>
</svg>
