<svg width="71" height="70" viewBox="0 0 71 70" fill="none" xmlns="http://www.w3.org/2000/svg">
<rect width="71" height="70" fill="#A9A9A9"/>
<g id="about us" clip-path="url(#clip0_5_27)">
<rect width="1440" height="3370" transform="translate(-594 -1573)" fill="#FFFDFB"/>
<g id="Frame 596">
<g id="Frame 594">
<g id="Frame 592">
<g id="Frame 583">
<rect x="-49.5" y="-50" width="174" height="170" rx="85" fill="#FBE2C6"/>
<g id="Frame 106">
<path id="Vector" d="M13.5 70C6.3203 70 0.5 64.1797 0.5 57V13C0.5 5.8203 6.3203 0 13.5 0H57.5C64.6797 0 70.5 5.8203 70.5 13V57C70.5 64.1797 64.6797 70 57.5 70H13.5ZM22.1129 45.7403C24.9033 42.6154 29.6501 42.2177 32.9215 44.8348C36.193 47.4521 40.9401 47.0542 43.7303 43.9289L53.2332 33.2851C54.3061 32.0834 54.2016 30.2394 52.9999 29.1666C51.7982 28.0938 49.9545 28.1982 48.8816 29.3997L43.0537 35.9263C40.2634 39.0513 35.5166 39.449 32.2452 36.8318C28.9736 34.2146 24.2266 34.6124 21.4363 37.7377L11.9335 48.3816C10.8606 49.5833 10.9651 51.4272 12.1668 52.5001C13.3684 53.5729 15.2122 53.4685 16.2851 52.267L22.1129 45.7403ZM63.2083 20.4167C63.2083 19.2563 62.7474 18.1435 61.9269 17.3231C61.1065 16.5026 59.9937 16.0417 58.8333 16.0417C57.673 16.0417 56.5602 16.5026 55.7397 17.3231C54.9193 18.1435 54.4583 19.2563 54.4583 20.4167C54.4583 21.577 54.9193 22.6898 55.7397 23.5103C56.5602 24.3307 57.673 24.7917 58.8333 24.7917C59.9937 24.7917 61.1065 24.3307 61.9269 23.5103C62.7474 22.6898 63.2083 21.577 63.2083 20.4167Z" fill="#EF7D00"/>
</g>
</g>
</g>
</g>
</g>
</g>
<defs>
<clipPath id="clip0_5_27">
<rect width="1440" height="3370" fill="white" transform="translate(-594 -1573)"/>
</clipPath>
</defs>
</svg>
