<svg width="24" height="24" viewBox="0 0 24 24" fill="none" xmlns="http://www.w3.org/2000/svg">
<g id="Linear / Call / Phone ">
<path id="Vector" d="M16.1007 13.359L15.3956 12.6499L16.1007 13.359ZM16.5562 12.9062L17.2613 13.6153L16.5562 12.9062ZM18.9728 12.5894L18.4952 13.468L18.4952 13.468L18.9728 12.5894ZM20.8833 13.628L20.4057 14.5066L20.8833 13.628ZM21.4217 16.883L22.1268 17.5921L21.4217 16.883ZM20.0011 18.2954L19.296 17.5863H19.296L20.0011 18.2954ZM18.6763 18.9651L18.7691 19.9608L18.6763 18.9651ZM8.81536 14.7266L9.52045 14.0174L8.81536 14.7266ZM4.00289 5.74561L3.0045 5.80235L3.0045 5.80235L4.00289 5.74561ZM10.4775 7.19738L11.1826 7.9065L10.4775 7.19738ZM10.6342 4.54348L11.4348 3.94419V3.94419L10.6342 4.54348ZM9.37326 2.85908L8.57273 3.45838L8.57273 3.45838L9.37326 2.85908ZM6.26145 2.57483L6.96654 3.28395V3.28395L6.26145 2.57483ZM4.69185 4.13552L3.98676 3.4264L3.98676 3.4264L4.69185 4.13552ZM12.0631 11.4972L12.7682 10.7881L12.0631 11.4972ZM16.8058 14.0681L17.2613 13.6153L15.8511 12.197L15.3956 12.6499L16.8058 14.0681ZM18.4952 13.468L20.4057 14.5066L21.3609 12.7494L19.4504 11.7108L18.4952 13.468ZM20.7166 16.1738L19.296 17.5863L20.7062 19.0046L22.1268 17.5921L20.7166 16.1738ZM18.5835 17.9695C17.1935 18.099 13.5201 17.9944 9.52045 14.0174L8.11027 15.4357C12.6041 19.904 16.9002 20.135 18.7691 19.9608L18.5835 17.9695ZM9.52045 14.0174C5.6935 10.2122 5.07766 7.03293 5.00128 5.68887L3.0045 5.80235C3.10841 7.63071 3.92793 11.2771 8.11027 15.4357L9.52045 14.0174ZM10.8958 8.19169L11.1826 7.9065L9.77243 6.48827L9.48561 6.77345L10.8958 8.19169ZM11.4348 3.94419L10.1738 2.25979L8.57273 3.45838L9.83371 5.14278L11.4348 3.94419ZM5.55636 1.86571L3.98676 3.4264L5.39694 4.84463L6.96654 3.28395L5.55636 1.86571ZM10.1907 7.48257C9.48561 6.77345 9.48466 6.7744 9.48371 6.77535C9.48339 6.77568 9.48243 6.77664 9.48178 6.77729C9.48048 6.77859 9.47917 6.77992 9.47784 6.78127C9.47518 6.78397 9.47244 6.78678 9.46965 6.78968C9.46405 6.79549 9.45819 6.80171 9.45208 6.80834C9.43988 6.82159 9.42671 6.83649 9.41279 6.8531C9.38497 6.88631 9.3541 6.92639 9.32208 6.97365C9.25785 7.06845 9.18946 7.19144 9.13194 7.34409C9.01421 7.65656 8.95554 8.0575 9.03061 8.54137C9.17668 9.48295 9.81522 10.6723 11.358 12.2064L12.7682 10.7881C11.356 9.38395 11.0583 8.56597 11.007 8.23476C10.9833 8.08225 11.0106 8.03044 11.0035 8.04925C11.0013 8.05508 10.9944 8.07102 10.9778 8.09547C10.9696 8.10756 10.9592 8.12165 10.9457 8.13765C10.939 8.14566 10.9316 8.15416 10.9233 8.16316C10.9191 8.16766 10.9148 8.17229 10.9102 8.17704C10.9079 8.17942 10.9056 8.18183 10.9032 8.18427C10.902 8.18549 10.9008 8.18672 10.8995 8.18795C10.8989 8.18857 10.898 8.18951 10.8977 8.18981C10.8967 8.19075 10.8958 8.19169 10.1907 7.48257ZM11.358 12.2064C12.9015 13.7411 14.0961 14.3739 15.0384 14.5184C15.5222 14.5926 15.9225 14.5346 16.2345 14.4184C16.387 14.3616 16.51 14.294 16.605 14.2304C16.6523 14.1986 16.6925 14.1681 16.7258 14.1405C16.7425 14.1266 16.7574 14.1136 16.7707 14.1015C16.7774 14.0954 16.7836 14.0896 16.7895 14.084C16.7924 14.0812 16.7952 14.0785 16.7979 14.0759C16.7993 14.0745 16.8006 14.0732 16.802 14.072C16.8026 14.0713 16.8036 14.0704 16.8039 14.07C16.8049 14.0691 16.8058 14.0681 16.1007 13.359C15.3956 12.6499 15.3966 12.649 15.3975 12.648C15.3978 12.6477 15.3988 12.6468 15.3994 12.6462C15.4006 12.645 15.4019 12.6438 15.4031 12.6426C15.4055 12.6402 15.408 12.6378 15.4104 12.6356C15.4151 12.631 15.4198 12.6267 15.4243 12.6226C15.4333 12.6144 15.4419 12.607 15.4499 12.6003C15.4659 12.5871 15.4799 12.5767 15.4919 12.5687C15.5161 12.5525 15.5315 12.546 15.5363 12.5442C15.5529 12.538 15.4979 12.5655 15.3417 12.5415C15.004 12.4897 14.1797 12.1916 12.7682 10.7881L11.358 12.2064ZM10.1738 2.25979C9.06902 0.784061 6.88797 0.541665 5.55636 1.86571L6.96654 3.28395C7.38395 2.8689 8.15155 2.89577 8.57273 3.45838L10.1738 2.25979ZM5.00128 5.68887C4.9868 5.43405 5.10159 5.13831 5.39694 4.84463L3.98676 3.4264C3.41487 3.99504 2.94851 4.81713 3.0045 5.80235L5.00128 5.68887ZM19.296 17.5863C19.05 17.831 18.8066 17.9487 18.5835 17.9695L18.7691 19.9608C19.5767 19.8855 20.2299 19.4782 20.7062 19.0046L19.296 17.5863ZM11.1826 7.9065C12.2598 6.83546 12.3351 5.14689 11.4348 3.94419L9.83371 5.14278C10.1662 5.58693 10.1084 6.15422 9.77243 6.48827L11.1826 7.9065ZM20.4057 14.5066C21.0872 14.877 21.1669 15.7261 20.7166 16.1738L22.1268 17.5921C23.5942 16.133 23.1332 13.7129 21.3609 12.7494L20.4057 14.5066ZM17.2613 13.6153C17.5634 13.3149 18.0603 13.2316 18.4952 13.468L19.4504 11.7108C18.2741 11.0714 16.8081 11.2454 15.8511 12.197L17.2613 13.6153Z" fill="#DCDCDC"/>
</g>
</svg>
