<svg width="90" height="90" viewBox="0 0 90 90" fill="none" xmlns="http://www.w3.org/2000/svg">
<path d="M67.4987 22.5005C65.2112 22.5005 63.1112 21.188 62.0612 19.163L59.3612 13.7255C57.6362 10.313 53.1362 7.50049 49.3112 7.50049H40.7237C36.8612 7.50049 32.3612 10.313 30.6362 13.7255L27.9362 19.163C26.8862 21.188 24.7862 22.5005 22.4987 22.5005C14.3612 22.5005 7.91118 29.363 8.43618 37.463L10.3862 68.438C10.8362 76.163 14.9987 82.5005 25.3487 82.5005H64.6487C74.9987 82.5005 79.1237 76.163 79.6112 68.438L81.5612 37.463C82.0862 29.363 75.6362 22.5005 67.4987 22.5005ZM39.3737 27.188H50.6237C52.1612 27.188 53.4362 28.463 53.4362 30.0005C53.4362 31.538 52.1612 32.813 50.6237 32.813H39.3737C37.8362 32.813 36.5612 31.538 36.5612 30.0005C36.5612 28.463 37.8362 27.188 39.3737 27.188ZM44.9987 67.9505C38.0237 67.9505 32.3237 62.288 32.3237 55.2755C32.3237 48.263 37.9862 42.6005 44.9987 42.6005C52.0112 42.6005 57.6737 48.263 57.6737 55.2755C57.6737 62.288 51.9737 67.9505 44.9987 67.9505Z" fill="#EF7D00"/>
</svg>
