<svg width="90" height="90" viewBox="0 0 90 90" fill="none" xmlns="http://www.w3.org/2000/svg">
<g id="vuesax/bold/code-circle">
<g id="code-circle">
<path id="Vector" d="M45 7.5C24.3 7.5 7.5 24.3 7.5 45C7.5 65.7 24.3 82.5 45 82.5C65.7 82.5 82.5 65.7 82.5 45C82.5 24.3 65.7 7.5 45 7.5ZM31.9875 50.5125C33.075 51.6 33.075 53.4 31.9875 54.4875C31.425 55.05 30.7125 55.3125 30 55.3125C29.2875 55.3125 28.575 55.05 28.0125 54.4875L20.5125 46.9875C19.425 45.9 19.425 44.1 20.5125 43.0125L28.0125 35.5125C29.1 34.425 30.9 34.425 31.9875 35.5125C33.075 36.6 33.075 38.4 31.9875 39.4875L26.475 45L31.9875 50.5125ZM51.3375 37.35L43.8375 54.8625C43.3875 55.9125 42.3375 56.55 41.25 56.55C40.875 56.55 40.5 56.475 40.1625 56.325C38.7375 55.725 38.0625 54.075 38.7 52.6125L46.2 35.1C46.8 33.675 48.45 33 49.875 33.6375C51.3 34.275 51.9375 35.925 51.3375 37.35ZM69.4875 46.9875L61.9875 54.4875C61.425 55.05 60.7125 55.3125 60 55.3125C59.2875 55.3125 58.575 55.05 58.0125 54.4875C56.925 53.4 56.925 51.6 58.0125 50.5125L63.525 45L58.0125 39.4875C56.925 38.4 56.925 36.6 58.0125 35.5125C59.1 34.425 60.9 34.425 61.9875 35.5125L69.4875 43.0125C70.575 44.1 70.575 45.9 69.4875 46.9875Z" fill="#EF7D00"/>
</g>
</g>
</svg>
