<svg width="100" height="100" viewBox="0 0 100 100" fill="none" xmlns="http://www.w3.org/2000/svg">
<rect width="100" height="100" rx="50" fill="#F18B1C"/>
<path d="M50 66.6666C59.2048 66.6666 66.6667 59.2047 66.6667 50C66.6667 40.7952 59.2048 33.3333 50 33.3333C40.7953 33.3333 33.3334 40.7952 33.3334 50C33.3334 59.2047 40.7953 66.6666 50 66.6666Z" stroke="white" stroke-width="4"/>
<path d="M55.8334 45L56.1193 45.286C58.3416 47.5082 59.4527 48.6193 59.4527 50C59.4527 51.3807 58.3416 52.4918 56.1193 54.714L55.8334 55" stroke="white" stroke-width="4" stroke-linecap="round"/>
<path d="M52.1569 41.9506L50 50L47.8432 58.0494" stroke="white" stroke-width="4" stroke-linecap="round"/>
<path d="M44.1667 45L43.8807 45.286C41.6585 47.5082 40.5474 48.6193 40.5474 50C40.5474 51.3807 41.6585 52.4918 43.8807 54.714L44.1667 55" stroke="white" stroke-width="4" stroke-linecap="round"/>
</svg>
