<svg width="90" height="90" viewBox="0 0 90 90" fill="none" xmlns="http://www.w3.org/2000/svg">
<g clip-path="url(#clip0_3156_7344)">
<path fill-rule="evenodd" clip-rule="evenodd" d="M11.25 18.75C11.25 16.7609 12.0402 14.8532 13.4467 13.4467C14.8532 12.0402 16.7609 11.25 18.75 11.25H30V30H11.25V18.75ZM30 37.5H11.25V71.25C11.25 73.2391 12.0402 75.1468 13.4467 76.5533C14.8532 77.9598 16.7609 78.75 18.75 78.75H30V37.5ZM37.5 78.75H71.25C73.2391 78.75 75.1468 77.9598 76.5533 76.5533C77.9598 75.1468 78.75 73.2391 78.75 71.25V37.5H37.5V78.75ZM37.5 30V11.25H71.25C73.2391 11.25 75.1468 12.0402 76.5533 13.4467C77.9598 14.8532 78.75 16.7609 78.75 18.75V30H37.5Z" fill="#EF7D00"/>
</g>
<defs>
<clipPath id="clip0_3156_7344">
<rect width="90" height="90" fill="white"/>
</clipPath>
</defs>
</svg>
