<svg width="90" height="90" viewBox="0 0 90 90" fill="none" xmlns="http://www.w3.org/2000/svg">
<path d="M80.625 40.875V15.375C80.625 9.75 78.225 7.5 72.2625 7.5H57.1125C51.15 7.5 48.75 9.75 48.75 15.375V40.875C48.75 46.5 51.15 48.75 57.1125 48.75H72.2625C78.225 48.75 80.625 46.5 80.625 40.875Z" fill="#EF7D00"/>
<path d="M41.25 49.125V74.625C41.25 80.25 38.85 82.5 32.8875 82.5H17.7375C11.775 82.5 9.375 80.25 9.375 74.625V49.125C9.375 43.5 11.775 41.25 17.7375 41.25H32.8875C38.85 41.25 41.25 43.5 41.25 49.125Z" fill="#EF7D00"/>
<path d="M80.625 74.625V64.125C80.625 58.5 78.225 56.25 72.2625 56.25H57.1125C51.15 56.25 48.75 58.5 48.75 64.125V74.625C48.75 80.25 51.15 82.5 57.1125 82.5H72.2625C78.225 82.5 80.625 80.25 80.625 74.625Z" fill="#EF7D00"/>
<path d="M41.25 25.875V15.375C41.25 9.75 38.85 7.5 32.8875 7.5H17.7375C11.775 7.5 9.375 9.75 9.375 15.375V25.875C9.375 31.5 11.775 33.75 17.7375 33.75H32.8875C38.85 33.75 41.25 31.5 41.25 25.875Z" fill="#EF7D00"/>
</svg>
