<svg width="90" height="90" viewBox="0 0 90 90" fill="none" xmlns="http://www.w3.org/2000/svg">
<path d="M65.85 7.5H24.0375C14.925 7.5 7.5 14.925 7.5 24.0375V48.4125V49.1625C7.5 58.3125 14.925 65.7 24.0375 65.7H38.4375C40.5 65.7 42.1875 67.3875 42.1875 69.45V73.0875C42.1875 75.15 40.5 76.8375 38.4375 76.8375H29.3625C27.825 76.8375 26.55 78.1125 26.55 79.65C26.55 81.1875 27.7875 82.5 29.3625 82.5H60.675C62.2125 82.5 63.4875 81.225 63.4875 79.6875C63.4875 78.15 62.2125 76.875 60.675 76.875H51.6C49.5375 76.875 47.85 75.1875 47.85 73.125V69.4875C47.85 67.425 49.5375 65.7375 51.6 65.7375H65.8875C75.0375 65.7375 82.425 58.3125 82.425 49.2V48.45V24.075C82.3875 14.925 74.9625 7.5 65.85 7.5Z" fill="#EF7D00"/>
</svg>
